<svg xmlns="http://www.w3.org/2000/svg" xmlns:xlink="http://www.w3.org/1999/xlink" preserveAspectRatio="xMidYMid" width="44" height="42" viewBox="0 0 44 42">
  <defs>
    <style>
      .cls-1 {
        filter: url(#color-overlay-1);
      }

      .cls-2 {
        fill: #ed4848;
        stroke: #000;
        stroke-linejoin: round;
        stroke-width: 2px;
        fill-opacity: 0;
      }

      .cls-2, .cls-3 {
        fill-rule: evenodd;
      }

      .cls-3 {
        fill: #000;
      }
    </style>

    <filter id="color-overlay-1" filterUnits="userSpaceOnUse">
      <feFlood flood-color="#333"/>
      <feComposite operator="in" in2="SourceGraphic"/>
      <feBlend in2="SourceGraphic" result="solidFill"/>
    </filter>
  </defs>
  <g class="cls-1">
    <path d="M42.567,41.000 L1.000,41.000 C1.000,41.000 0.573,34.995 7.395,32.351 C10.907,30.990 16.397,30.593 16.987,28.027 C17.338,25.615 17.003,25.540 14.856,23.703 C12.708,21.865 10.592,18.141 10.592,12.892 C10.592,7.891 14.233,1.641 21.251,1.058 L21.251,1.000 C21.436,1.000 22.131,1.000 22.316,1.000 L22.316,1.058 C29.334,1.641 32.975,7.891 32.975,12.892 C32.975,18.141 30.859,21.865 28.711,23.703 C26.564,25.540 26.229,25.615 26.580,28.027 C27.170,30.593 32.660,30.990 36.172,32.351 C42.994,34.995 42.567,41.000 42.567,41.000 Z" class="cls-2"/>
    <path d="M42.000,34.000 L37.000,34.000 L37.000,39.000 C37.000,39.552 36.552,40.000 36.000,40.000 C35.448,40.000 35.000,39.552 35.000,39.000 L35.000,34.000 L30.000,34.000 C29.448,34.000 29.000,33.552 29.000,33.000 C29.000,32.448 29.448,32.000 30.000,32.000 L35.000,32.000 L35.000,27.000 C35.000,26.448 35.448,26.000 36.000,26.000 C36.552,26.000 37.000,26.448 37.000,27.000 L37.000,32.000 L42.000,32.000 C42.552,32.000 43.000,32.448 43.000,33.000 C43.000,33.552 42.552,34.000 42.000,34.000 Z" class="cls-3"/>
  </g>
</svg>
