<svg xmlns="http://www.w3.org/2000/svg" xmlns:xlink="http://www.w3.org/1999/xlink" preserveAspectRatio="xMidYMid" width="126" height="130" viewBox="0 0 126 130">
  <defs>
    <style>
      .cls-1 {
        fill: #ccc;
        fill-rule: evenodd;
      }
    </style>
  </defs>
  <path d="M115.797,130.000 L10.202,130.000 C4.577,130.000 -0.000,125.443 -0.000,119.841 L-0.000,10.158 C-0.000,4.556 4.577,-0.000 10.202,-0.000 L24.667,-0.000 L101.332,-0.000 L115.797,-0.000 C121.423,-0.000 126.000,4.557 126.000,10.158 L126.000,119.841 C126.000,125.443 121.422,130.000 115.797,130.000 ZM117.834,10.158 C117.834,9.040 116.920,8.131 115.797,8.131 L93.166,8.131 L32.833,8.131 L10.202,8.131 C9.079,8.131 8.166,9.040 8.166,10.158 L8.166,119.841 C8.166,120.960 9.079,121.869 10.202,121.869 L115.797,121.869 C116.920,121.869 117.834,120.960 117.834,119.841 L117.834,10.158 ZM28.659,88.714 L97.571,88.714 L97.571,96.817 L28.659,96.817 L28.659,88.714 ZM28.659,61.302 L97.571,61.302 L97.571,69.406 L28.659,69.406 L28.659,61.302 ZM28.659,33.891 L97.571,33.891 L97.571,41.994 L28.659,41.994 L28.659,33.891 Z" class="cls-1"/>
</svg>
